<svg width="1512" height="10101" viewBox="0 0 1512 10101" fill="none" xmlns="http://www.w3.org/2000/svg">
<g clip-path="url(#clip0_451_109)">
<path opacity="0.85" fill-rule="evenodd" clip-rule="evenodd" d="M322.199 3274.86C445.51 3292.73 476.667 3468.45 559.328 3570.38C632.797 3660.98 746.07 3712.78 772.754 3830.44C806.056 3977.28 825.803 4170.58 716.34 4262.69C607.165 4354.55 459.282 4222.7 322.199 4209.55C207.902 4198.59 72.5668 4282.15 -8.56415 4193.18C-89.6953 4104.21 -27.3478 3956.2 -23.5085 3830.44C-19.8969 3712.14 -47.9692 3588.97 12.8672 3491.2C84.5275 3376.03 196.163 3256.6 322.199 3274.86Z" fill="url(#paint0_radial_451_109)"/>
<path opacity="0.85" fill-rule="evenodd" clip-rule="evenodd" d="M77.7232 -56.478C142.734 -126.38 221.612 -178.481 301.225 -212.031C383.496 -246.701 469.334 -269.973 532.305 -248.042C594.516 -226.376 616.237 -159.372 636.178 -95.3778C655.707 -32.7093 689.445 35.1016 645.37 114.795C601.329 194.425 500.205 222.103 427.292 282.311C371.903 328.05 330.257 390.124 270.599 424.267C200.628 464.311 116.961 511.532 64.5937 489.883C12.2559 468.247 42.0383 375.377 21.9305 321.466C1.20502 265.899 -64.998 241.389 -54.5324 170.494C-43.3657 94.8503 14.1224 11.9082 77.7232 -56.478Z" fill="url(#paint1_radial_451_109)"/>
<path opacity="0.85" fill-rule="evenodd" clip-rule="evenodd" d="M878.153 5558.62C839.539 5497.09 852.955 5417.07 845.519 5342.91C837.822 5266.16 793.383 5186.32 833.722 5115.57C874.085 5044.77 976.613 5043.26 1043.74 4995.22C1118.51 4941.73 1161.06 4841.51 1248.5 4818.76C1340.06 4794.94 1439.08 4821.07 1509.38 4874.06C1578.13 4925.89 1607.48 5014.12 1622.13 5100.42C1635.1 5176.8 1609.26 5254.47 1587.14 5332.03C1566.32 5405.01 1544.77 5477.2 1497.07 5538.94C1445.55 5605.6 1384.04 5670 1304.94 5697.25C1224.43 5724.98 1139.04 5713.49 1062.5 5688.63C988.058 5664.45 918.753 5623.3 878.153 5558.62Z" fill="url(#paint2_radial_451_109)"/>
<path opacity="0.85" fill-rule="evenodd" clip-rule="evenodd" d="M1273.81 1901.96C1340.77 1902.89 1400.78 1970.13 1464.85 2011.83C1531.15 2054.98 1615.63 2062.08 1656.58 2151.08C1697.54 2240.13 1655.16 2347.52 1666.05 2449.19C1678.17 2562.41 1742.37 2673.35 1723.85 2779.23C1704.46 2890.11 1640.87 2975.45 1567.43 3013.08C1495.62 3049.88 1410.67 3021.54 1333.56 2979.24C1265.32 2941.8 1212.53 2863.24 1158.24 2788.6C1107.16 2718.37 1057.04 2647.91 1026.64 2557.28C993.805 2459.4 967.096 2352.66 978.374 2252.43C989.852 2150.42 1035.62 2069.46 1088.6 2006.62C1140.14 1945.48 1203.41 1900.99 1273.81 1901.96Z" fill="url(#paint3_radial_451_109)"/>
<path opacity="0.85" fill-rule="evenodd" clip-rule="evenodd" d="M1355.32 145.595C1437.98 158.439 1467.79 265.769 1540.04 307.953C1617.46 353.153 1739.33 322.467 1787.64 398.009C1834.8 471.748 1783.81 569.366 1761.33 653.973C1741.17 729.862 1714.72 803.275 1664.05 863.245C1612.96 923.725 1550.98 983.881 1472.72 995.626C1396.86 1007.01 1332.84 944.521 1258.92 924.036C1183.41 903.109 1095.88 922.288 1034.09 874.071C968.475 822.87 935.958 739.811 918.514 658.402C900.252 573.172 893.492 480.265 933.069 402.613C972.082 326.067 1056.27 288.837 1129.63 244.18C1201.21 200.611 1272.53 132.73 1355.32 145.595Z" fill="url(#paint4_radial_451_109)"/>
<path opacity="0.85" fill-rule="evenodd" clip-rule="evenodd" d="M462.303 1406.59C562.116 1414.79 629.102 1525.06 666.675 1616.92C702.109 1703.55 687.875 1800.16 659.089 1887.72C634.004 1964.02 566.928 2012.16 516.223 2074.54C458.412 2145.66 430.134 2250.09 341.622 2278.29C250.493 2307.33 131.563 2288.18 64.6265 2218.45C-1.55154 2149.5 68.4437 2029.83 23.0597 1946.42C-22.1148 1863.4 -179.351 1853.66 -184.579 1760.44C-189.501 1672.67 -77.4437 1622.22 2.81116 1585.36C66.3438 1556.17 144.36 1604.76 209.628 1579.37C307.709 1541.21 356.157 1397.87 462.303 1406.59Z" fill="url(#paint5_radial_451_109)"/>
<path fill-rule="evenodd" clip-rule="evenodd" d="M543.134 8181.98C616.988 8179.87 701.353 8164.63 759.02 8200.77C816.615 8236.86 798.586 8308.76 829.234 8361.26C859.873 8413.74 929.365 8450.56 938.282 8507.83C948.258 8571.91 941.034 8648.04 880.751 8692.14C820.374 8736.31 723.711 8731.06 641.386 8725.03C576.781 8720.3 532.711 8669.65 468.578 8661.94C388.15 8652.26 289.195 8719.21 230.031 8675.53C173.398 8633.72 254.778 8557.34 245.068 8496.92C235.633 8438.21 156.215 8389.26 174.81 8331.9C193.418 8274.5 269.989 8240.17 337.165 8212.83C400.453 8187.07 471.832 8184.02 543.134 8181.98Z" fill="url(#paint6_radial_451_109)"/>
<path fill-rule="evenodd" clip-rule="evenodd" d="M1179.47 8759.14C1246.77 8756.22 1304.83 8798.78 1366.96 8824.85C1437.88 8854.61 1524.63 8862.26 1571.19 8923.52C1618.43 8985.7 1613.78 9071.75 1613.94 9149.87C1614.1 9228.11 1602.16 9304.53 1572.13 9376.77C1539.18 9456.07 1506.35 9544.76 1432.01 9587.65C1357.67 9630.54 1263.02 9622.87 1179.47 9603.33C1104.62 9585.83 1055.24 9518.91 986.97 9483.58C914.444 9446.05 818.793 9450.99 765.481 9389.09C710.579 9325.36 692.236 9233.71 699.524 9149.87C706.595 9068.54 748.098 8991.95 805.086 8933.54C856.465 8880.87 934.452 8871.77 1001.13 8840.71C1061.41 8812.63 1113.04 8762.02 1179.47 8759.14Z" fill="url(#paint7_radial_451_109)"/>
<path fill-rule="evenodd" clip-rule="evenodd" d="M209.276 6542.22C297.16 6532.68 366.834 6660.37 447.315 6725.31C523.615 6786.88 617.122 6812.07 667.986 6912.35C721.305 7017.48 729.313 7148.15 722.914 7268.7C716.382 7391.77 699.232 7524.08 631.635 7597.17C566.196 7667.93 468.085 7635.55 381.027 7638.36C303.023 7640.88 227.171 7650.13 150.912 7612.69C62.6101 7569.33 -42.935 7525.99 -85.3681 7409.35C-127.712 7292.94 -73.5782 7170.44 -53.0488 7052C-35.5246 6950.91 -17.3189 6853.87 25.2658 6771.12C74.3869 6675.66 121.279 6551.77 209.276 6542.22Z" fill="url(#paint8_radial_451_109)"/>
<path fill-rule="evenodd" clip-rule="evenodd" d="M1405.82 6299.3C1482.45 6288.14 1562.55 6318.75 1623.16 6366.97C1681.23 6413.17 1711.27 6485.34 1729.92 6557.17C1746.49 6620.97 1741.6 6687.61 1722.8 6750.79C1705.83 6807.85 1664.74 6850.95 1628.49 6898.18C1589.77 6948.62 1562.01 7012.7 1503.19 7036.88C1442.6 7061.79 1373.81 7046.75 1310.82 7028.77C1247.45 7010.69 1192.37 6976.32 1142.01 6933.82C1083.94 6884.83 997.153 6839.97 997 6763.99C996.842 6685.6 1097.49 6649.39 1141.31 6584.39C1175.63 6533.48 1183.88 6469.84 1225.65 6424.83C1276.46 6370.06 1331.89 6310.05 1405.82 6299.3Z" fill="url(#paint9_radial_451_109)"/>
<g opacity="0.8">
<path opacity="0.8" fill-rule="evenodd" clip-rule="evenodd" d="M1033.31 7879.87C1133.25 7881.13 1216.88 8000.35 1305.69 8094.49C1401.92 8196.5 1542.28 8274.93 1554.79 8432.65C1567.26 8589.92 1428.05 8622.21 1355.11 8717.95C1273.95 8824.49 1237.79 9036.82 1115.64 9009.11C988.207 8980.21 907.386 8771.19 838.775 8600.83C771.134 8432.87 702.469 8242.93 744.432 8087.41C785.802 7934.09 911.474 7878.33 1033.31 7879.87Z" fill="url(#paint10_linear_451_109)"/>
<path opacity="0.8" fill-rule="evenodd" clip-rule="evenodd" d="M620.755 1421.35C704.663 1395.46 823.077 1374.02 872.933 1446.31C923.98 1520.32 834.94 1611.58 811.897 1698.49C798.297 1749.78 794.943 1799.71 767.232 1844.96C727.215 1910.31 696.849 2001.59 620.755 2010.63C543.424 2019.82 490.23 1939.14 434.785 1884.46C378.733 1829.17 291.439 1776.16 304.27 1698.49C317.066 1621.03 428.45 1616.97 487.515 1565.25C538.64 1520.48 555.82 1441.39 620.755 1421.35Z" fill="url(#paint11_linear_451_109)"/>
<path opacity="0.8" fill-rule="evenodd" clip-rule="evenodd" d="M1219.5 -19.0872C1364.92 1.99076 1410.34 69.3703 1510.47 116.64C1595.68 156.862 1751.3 180.617 1754.36 233.392C1757.44 286.476 1605.62 313.807 1524.35 355.712C1420.26 409.383 1381.48 489.165 1219.5 509.185C1025.15 533.205 785.87 522.777 643.253 464.609C501.123 406.641 550.72 314.656 543.298 233.392C535.397 146.88 441.467 43.5579 599.413 -15.4157C756.733 -74.1557 1017.39 -48.383 1219.5 -19.0872Z" fill="url(#paint12_linear_451_109)"/>
<path opacity="0.8" fill-rule="evenodd" clip-rule="evenodd" d="M1200.57 3285.32C1259.88 3295.52 1300.88 3338.52 1352.56 3369.37C1437.94 3420.34 1593.08 3421.96 1595.96 3521.34C1598.81 3619.82 1437.4 3619.4 1361.62 3682.37C1299.68 3733.84 1278.28 3828.78 1200.57 3849.9C1105.2 3875.8 983.984 3877.26 919.343 3802.52C855.596 3728.82 903.534 3617.93 916.395 3521.34C926.727 3443.74 925.2 3356.25 985.426 3306.23C1043.04 3258.38 1126.75 3272.62 1200.57 3285.32Z" fill="url(#paint13_linear_451_109)"/>
<path opacity="0.8" fill-rule="evenodd" clip-rule="evenodd" d="M428.091 2026.96C511.741 2046.22 515.598 2164.47 575.139 2226.31C632.224 2285.59 754.725 2291.35 761.645 2373.35C768.524 2454.87 658.761 2488.36 602.243 2547.51C543.152 2609.35 513.606 2720.59 428.091 2722.43C342.502 2724.28 298.506 2623 246.26 2555.18C203.622 2499.84 168.008 2442.66 159.162 2373.35C148.743 2291.73 142.588 2203.31 193.051 2138.31C248.32 2067.12 340.264 2006.73 428.091 2026.96Z" fill="url(#paint14_linear_451_109)"/>
<path opacity="0.8" fill-rule="evenodd" clip-rule="evenodd" d="M319.146 4684.34C399.726 4698.03 443.912 4772.74 497.22 4834.69C554.985 4901.83 653.083 4962.09 632.178 5048.15C611.334 5133.97 492.399 5133.13 414.587 5174.89C327.999 5221.35 256.994 5330.32 163.656 5299.58C66.2812 5267.52 42.0225 5145.11 20.0362 5044.97C-1.63907 4946.26 -19.8174 4835.64 44.7038 4757.84C108.313 4681.15 220.915 4667.66 319.146 4684.34Z" fill="url(#paint15_linear_451_109)"/>
</g>
</g>
<defs>
<radialGradient id="paint0_radial_451_109" cx="0" cy="0" r="1" gradientUnits="userSpaceOnUse" gradientTransform="translate(374.5 3784) rotate(71.2485) scale(777.114 659.784)">
<stop offset="0.0416667" stop-color="#E2DFF8"/>
<stop offset="0.692708" stop-color="#DBE8EE"/>
<stop offset="1" stop-color="#CBCBCB"/>
</radialGradient>
<radialGradient id="paint1_radial_451_109" cx="0" cy="0" r="1" gradientUnits="userSpaceOnUse" gradientTransform="translate(289.761 107.481) rotate(10.4281) scale(461.156 593.509)">
<stop offset="0.0416667" stop-color="#E2DFF8"/>
<stop offset="0.692708" stop-color="#DBE8EE"/>
<stop offset="1" stop-color="#CBCBCB"/>
</radialGradient>
<radialGradient id="paint2_radial_451_109" cx="0" cy="0" r="1" gradientUnits="userSpaceOnUse" gradientTransform="translate(1241.95 5271.89) rotate(-58.0307) scale(707.294 601.384)">
<stop offset="0.0416667" stop-color="#E2DFF8"/>
<stop offset="0.692708" stop-color="#DBE8EE"/>
<stop offset="1" stop-color="#CBCBCB"/>
</radialGradient>
<radialGradient id="paint3_radial_451_109" cx="0" cy="0" r="1" gradientUnits="userSpaceOnUse" gradientTransform="translate(1354.5 2470.5) rotate(67.0749) scale(856 564.325)">
<stop offset="0.0416667" stop-color="#E2DFF8"/>
<stop offset="0.692708" stop-color="#DBE8EE"/>
<stop offset="1" stop-color="#CBCBCB"/>
</radialGradient>
<radialGradient id="paint4_radial_451_109" cx="0" cy="0" r="1" gradientUnits="userSpaceOnUse" gradientTransform="translate(1355.5 570.5) rotate(66.606) scale(669.192 680.164)">
<stop offset="0.0416667" stop-color="#E2DFF8"/>
<stop offset="0.692708" stop-color="#DBE8EE"/>
<stop offset="1" stop-color="#CBCBCB"/>
</radialGradient>
<radialGradient id="paint5_radial_451_109" cx="0" cy="0" r="1" gradientUnits="userSpaceOnUse" gradientTransform="translate(241.626 1803.27) rotate(96.041) scale(710.397 638.299)">
<stop offset="0.0416667" stop-color="#E2DFF8"/>
<stop offset="0.692708" stop-color="#DBE8EE"/>
<stop offset="1" stop-color="#CBCBCB"/>
</radialGradient>
<radialGradient id="paint6_radial_451_109" cx="0" cy="0" r="1" gradientUnits="userSpaceOnUse" gradientTransform="translate(557 8453) rotate(60.3146) scale(457.497 548.996)">
<stop offset="0.0416667" stop-color="#E2DFF8"/>
<stop offset="0.692708" stop-color="#DBE8EE"/>
<stop offset="1" stop-color="#CBCBCB"/>
</radialGradient>
<radialGradient id="paint7_radial_451_109" cx="0" cy="0" r="1" gradientUnits="userSpaceOnUse" gradientTransform="translate(1156 9189) rotate(66.4779) scale(675.338 689.287)">
<stop offset="0.0416667" stop-color="#E2DFF8"/>
<stop offset="0.692708" stop-color="#DBE8EE"/>
<stop offset="1" stop-color="#CBCBCB"/>
</radialGradient>
<radialGradient id="paint8_radial_451_109" cx="0" cy="0" r="1" gradientUnits="userSpaceOnUse" gradientTransform="translate(291.709 7104.84) rotate(64.1361) scale(856.199 666.266)">
<stop offset="0.0416667" stop-color="#E2DFF8"/>
<stop offset="0.692708" stop-color="#DBE8EE"/>
<stop offset="1" stop-color="#CBCBCB"/>
</radialGradient>
<radialGradient id="paint9_radial_451_109" cx="0" cy="0" r="1" gradientUnits="userSpaceOnUse" gradientTransform="translate(1368.5 6673.5) rotate(68.0391) scale(584.598 565.528)">
<stop offset="0.0416667" stop-color="#E2DFF8"/>
<stop offset="0.692708" stop-color="#DBE8EE"/>
<stop offset="1" stop-color="#CBCBCB"/>
</radialGradient>
<linearGradient id="paint10_linear_451_109" x1="1028.7" y1="7869.14" x2="1541.79" y2="8881.21" gradientUnits="userSpaceOnUse">
<stop offset="0.463141" stop-color="#CFEAF2"/>
<stop offset="0.98556" stop-color="#FFE6F2"/>
</linearGradient>
<linearGradient id="paint11_linear_451_109" x1="595.74" y1="1397" x2="696.948" y2="2009.52" gradientUnits="userSpaceOnUse">
<stop offset="0.463141" stop-color="#CFEAF2"/>
<stop offset="0.98556" stop-color="#FFE6F2"/>
</linearGradient>
<linearGradient id="paint12_linear_451_109" x1="1131.41" y1="-50.7666" x2="1173.54" y2="532.047" gradientUnits="userSpaceOnUse">
<stop offset="0.463141" stop-color="#CFEAF2"/>
<stop offset="0.98556" stop-color="#FFE6F2"/>
</linearGradient>
<linearGradient id="paint13_linear_451_109" x1="1241.5" y1="3273" x2="1320.13" y2="3870.01" gradientUnits="userSpaceOnUse">
<stop offset="0.463141" stop-color="#CFEAF2"/>
<stop offset="0.98556" stop-color="#FFE6F2"/>
</linearGradient>
<linearGradient id="paint14_linear_451_109" x1="456.977" y1="2023" x2="582.257" y2="2716.78" gradientUnits="userSpaceOnUse">
<stop offset="0.463141" stop-color="#CFEAF2"/>
<stop offset="0.98556" stop-color="#FFE6F2"/>
</linearGradient>
<linearGradient id="paint15_linear_451_109" x1="317.526" y1="4678" x2="415" y2="5305" gradientUnits="userSpaceOnUse">
<stop offset="0.463141" stop-color="#CFEAF2"/>
<stop offset="0.98556" stop-color="#FFE6F2"/>
</linearGradient>
<clipPath id="clip0_451_109">
<rect width="1512" height="10101" fill="white"/>
</clipPath>
</defs>
</svg>
