<?xml version="1.0" encoding="UTF-8"?>
<svg xmlns="http://www.w3.org/2000/svg" width="32" height="32" viewBox="0 0 32 32" fill="none">
  <path d="M2.46777 13.3873C2.46777 8.77278 2.46777 6.46553 3.66967 4.86476C4.00976 4.4118 4.41229 4.00927 4.86525 3.66918C6.46602 2.46729 8.77327 2.46729 13.3878 2.46729H18.6131C23.2276 2.46729 25.5349 2.46729 27.1357 3.66918C27.5886 4.00927 27.9912 4.4118 28.3313 4.86476C29.5331 6.46553 29.5331 8.77278 29.5331 13.3873V18.6127C29.5331 23.2272 29.5331 25.5344 28.3313 27.1352C27.9912 27.5881 27.5886 27.9907 27.1357 28.3308C25.5349 29.5327 23.2276 29.5327 18.6131 29.5327H13.3878C8.77327 29.5327 6.46602 29.5327 4.86525 28.3308C4.41229 27.9907 4.00976 27.5881 3.66967 27.1352C2.46777 25.5344 2.46777 23.2272 2.46777 18.6127V13.3873Z" stroke="black" stroke-width="1.5"></path>
  <circle cx="15.9995" cy="16" r="6.23387" stroke="black" stroke-width="1.5"></circle>
  <circle cx="24.058" cy="7.94174" r="1.11166" stroke="black"></circle>
</svg>
