<?xml version="1.0" encoding="UTF-8"?>
<svg xmlns="http://www.w3.org/2000/svg" width="32" height="32" viewBox="0 0 32 32" fill="none">
  <path d="M28.2 2.5H4.8C4.32261 2.5 3.86477 2.68964 3.52721 3.02721C3.18964 3.36477 3 3.82261 3 4.3V27.7C3 28.1774 3.18964 28.6352 3.52721 28.9728C3.86477 29.3104 4.32261 29.5 4.8 29.5H28.2C28.6774 29.5 29.1352 29.3104 29.4728 28.9728C29.8104 28.6352 30 28.1774 30 27.7V4.3C30 3.82261 29.8104 3.36477 29.4728 3.02721C29.1352 2.68964 28.6774 2.5 28.2 2.5ZM10.9983 25.5346H6.9366V12.625H10.9983V25.5346ZM8.967 10.8529C8.50005 10.8515 8.044 10.7117 7.65643 10.4513C7.26887 10.1908 6.96718 9.82133 6.78947 9.38951C6.61177 8.9577 6.56601 8.48291 6.65798 8.0251C6.74995 7.5673 6.97552 7.14701 7.3062 6.81733C7.63689 6.48765 8.05786 6.26336 8.51594 6.17278C8.97402 6.08221 9.44867 6.12941 9.87994 6.30843C10.3112 6.48745 10.6798 6.79026 10.939 7.17862C11.1983 7.56697 11.3367 8.02345 11.3367 8.4904C11.3368 8.80129 11.2756 9.10914 11.1564 9.3963C11.0373 9.68345 10.8626 9.94426 10.6425 10.1638C10.4223 10.3833 10.161 10.5571 9.87344 10.6754C9.58592 10.7936 9.27789 10.854 8.967 10.8529ZM26.0589 25.5346H22.08V19.2904C22.08 17.7721 22.08 15.9154 19.965 15.9154C17.85 15.9154 17.5953 17.5192 17.5953 19.2058V25.6192H13.62V12.625H17.3424V14.3971H17.427C17.8109 13.7334 18.368 13.1864 19.0387 12.8149C19.7095 12.4433 20.4686 12.261 21.2349 12.2875C25.2966 12.2875 26.058 14.65 26.058 18.4471L26.0589 25.5346Z" stroke="black" stroke-width="1.5"></path>
</svg>
