<?xml version="1.0" encoding="UTF-8"?>
<svg xmlns="http://www.w3.org/2000/svg" width="180" height="64" viewBox="0 0 180 64" fill="none">
  <path d="M90.3144 39.85H70.0039L65.8431 51.275H55.5469L74.7289 1.27502H86.0126L105.054 51.275H94.4751L90.3144 39.85ZM73.2479 30.965H87.0704L80.1591 12.065L73.2479 30.965Z" fill="black"></path>
  <path d="M135.924 1.27502H146.22L127.674 51.275H117.658L99.1816 1.27502H109.832L122.878 38.4403L135.924 1.27502Z" fill="black"></path>
  <path d="M31.703 40.343C31.7029 38.5701 30.9985 36.8698 29.7449 35.6161C28.4912 34.3625 26.7909 33.6582 25.018 33.6582H7.34295C5.57007 33.6583 3.86981 34.3626 2.61619 35.6162C1.36257 36.8698 0.658269 38.5701 0.658203 40.343V51.25H31.703V40.343Z" fill="black"></path>
  <path d="M16.1809 0C7.77111 0 2.75586 4.13325 2.75586 4.13325C2.75586 4.13325 5.01811 17.0865 5.99261 22.246C6.64086 25.6785 8.51536 27.8655 12.9539 27.8655H19.4104C23.8486 27.8655 25.7234 25.6785 26.3716 22.246C27.3466 17.0865 29.6081 4.13325 29.6081 4.13325C29.6081 4.13325 24.5906 0 16.1809 0Z" fill="black"></path>
  <path d="M177.342 43H168.833V1.27502H160.441C159.654 5.38852 155.406 9.82377 150.17 9.87877V16.4373H159.17V43H150.17V51.25H177.342V43Z" fill="black"></path>
</svg>
