<?xml version="1.0" encoding="UTF-8"?>
<svg xmlns="http://www.w3.org/2000/svg" width="32" height="32" viewBox="0 0 32 32" fill="none">
  <path d="M12.5966 28.5C12.5966 28.9142 12.9324 29.25 13.3466 29.25H17.5C17.9142 29.25 18.25 28.9142 18.25 28.5V21.2415H20.5C20.8211 21.2415 21.1066 21.0371 21.21 20.7331L22.71 16.3243C22.7879 16.0953 22.7506 15.8428 22.6098 15.6461C22.469 15.4494 22.2419 15.3328 22 15.3328H18.25V13.568C18.25 13.0532 18.3419 12.8134 18.4528 12.6901C18.5497 12.5823 18.8029 12.4102 19.5358 12.4102H19.5361L21.654 12.4093C22.0681 12.4091 22.4037 12.0734 22.4037 11.6593V8.15439C22.4037 7.7776 22.1242 7.45931 21.7505 7.41066C21.3476 7.3582 20.0577 7.25 18.5674 7.25C16.9125 7.25 15.4085 7.69758 14.31 8.68703C13.1991 9.68754 12.5966 11.1577 12.5966 13.004V15.3328H10C9.58579 15.3328 9.25 15.6685 9.25 16.0828V20.4915C9.25 20.9058 9.58579 21.2415 10 21.2415H12.5966V28.5Z" stroke="black" stroke-width="1.5" stroke-linejoin="round"></path>
  <path d="M2.75 4C2.75 3.30964 3.30964 2.75 4 2.75H28C28.6904 2.75 29.25 3.30964 29.25 4V28C29.25 28.6904 28.6904 29.25 28 29.25H4C3.30964 29.25 2.75 28.6904 2.75 28V4Z" stroke="black" stroke-width="1.5"></path>
</svg>
