<?xml version="1.0" encoding="UTF-8"?>
<svg xmlns="http://www.w3.org/2000/svg" width="32" height="32" viewBox="0 0 32 32" fill="none">
  <path d="M21.3756 8.18643C21.9916 8.19488 22.5996 8.32728 23.1633 8.57572C23.727 8.82417 24.235 9.18358 24.6568 9.63252C24.6568 9.63252 26.4475 9.28096 27.4365 8.58486C27.4365 8.58486 27.1881 9.96299 25.5404 11.0177H25.5545C25.6811 11.0177 26.6045 10.9942 28.0576 10.3146C28.0576 10.3146 27.7787 11.1091 25.8779 12.6208C25.9928 16.1974 24.2232 22.8091 17.6748 25.1622C16.2366 25.6883 14.7179 25.9603 13.1865 25.9661C10.733 25.9773 8.32976 25.271 6.27246 23.9341C6.62402 23.9692 6.94043 23.9692 7.25684 23.9692C11.1287 23.9692 13.0037 21.9817 12.9006 21.9817H12.7576C9.47637 21.9817 8.67715 18.8411 8.67715 18.8411C8.93994 19 9.24484 19.0752 9.55137 19.0567C9.94757 19.0485 10.3412 18.991 10.7232 18.8856C7.02012 18.0091 7.1584 14.456 7.1584 14.456C7.65883 14.7899 8.24438 14.9737 8.8459 14.9856C8.94484 14.9868 9.04368 14.9789 9.14121 14.9622C5.75918 12.2856 7.7959 9.09111 7.7959 9.09111C11.6068 13.5138 16.292 13.6708 16.9365 13.6708H17.0139C16.667 11.5942 17.5225 9.59971 19.8264 8.51455C20.307 8.29384 20.8303 8.18181 21.3592 8.18643H21.3756ZM29.5928 5.21924L26.5623 7.34736C26.0994 7.6248 25.599 7.83399 25.0764 7.96846C24.0157 7.14019 22.7119 6.68392 21.3662 6.67002C20.6139 6.66306 19.8694 6.82316 19.1865 7.13877C17.035 8.14893 15.7271 9.89267 15.467 11.9856C12.9199 11.4603 10.6248 10.0902 8.95371 8.09736L7.61777 6.54814L6.51621 8.26611C5.80606 9.43598 5.52437 10.8162 5.71934 12.1708L5.63262 14.4044C5.61315 15.8223 6.08427 17.2034 6.96621 18.3138L7.20059 19.2278C7.53674 20.4082 8.21929 21.4606 9.15996 22.2489C8.53413 22.3858 7.89512 22.4534 7.25449 22.4505C6.97559 22.4505 6.6873 22.4388 6.39668 22.4153L1.02246 21.9677L5.37012 25.1622C7.69026 26.6887 10.4093 27.4967 13.1865 27.4849C14.8958 27.4803 16.5913 27.1789 18.1975 26.5942C21.4196 25.4443 24.0784 23.1033 25.6271 20.0528C26.6984 17.9697 27.3038 15.6784 27.4014 13.338C28.9553 11.9997 29.3818 11.1466 29.4967 10.8208L30.6967 7.40596L29.0561 8.17002L29.5928 5.21924Z" fill="black"></path>
</svg>
