<?xml version="1.0" encoding="UTF-8"?>
<svg xmlns="http://www.w3.org/2000/svg" width="32" height="32" viewBox="0 0 32 32" fill="none">
  <path d="M30.7188 10C30.7188 10 30.4375 7.9375 29.5 7C28.375 5.78125 27.0625 5.78125 26.5 5.6875C22.2812 5.40625 16 5.40625 16 5.40625C16 5.40625 9.71875 5.40625 5.5 5.6875C4.9375 5.78125 3.625 5.78125 2.5 7C1.5625 7.9375 1.28125 10 1.28125 10C1.28125 10 1 12.4375 1 14.875V17.125C1 19.5625 1.28125 22 1.28125 22C1.28125 22 1.5625 24.0625 2.5 25C3.625 26.2188 5.125 26.125 5.78125 26.3125C8.21875 26.5 16 26.5937 16 26.5937C16 26.5937 22.2812 26.5938 26.5 26.3125C27.0625 26.2188 28.375 26.2188 29.5 25C30.4375 24.0625 30.7188 22 30.7188 22C30.7188 22 31 19.5625 31 17.125V14.875C31 12.4375 30.7188 10 30.7188 10Z" stroke="black" stroke-width="1.5"></path>
  <path d="M13 11.5V19.9375L21.0625 15.7188L13 11.5Z" stroke="black" stroke-width="1.5"></path>
</svg>
